<svg width="13" height="24" viewBox="0 0 13 24" fill="none" xmlns="http://www.w3.org/2000/svg">
<path d="M11.25 6.00012C10.8358 6.00012 10.5 6.33591 10.5 6.75012V17.5001C10.5 19.7101 8.71 21.5001 6.5 21.5001C4.29 21.5001 2.5 19.7101 2.5 17.5001V5.00012C2.5 3.62012 3.62 2.50012 5 2.50012C6.38 2.50012 7.5 3.62012 7.5 5.00012V15.5001C7.5 16.0501 7.05 16.5001 6.5 16.5001C5.95 16.5001 5.5 16.0501 5.5 15.5001V6.75012C5.5 6.33591 5.16421 6.00012 4.75 6.00012C4.33579 6.00012 4 6.33591 4 6.75012V15.5001C4 16.8801 5.12 18.0001 6.5 18.0001C7.88 18.0001 9 16.8801 9 15.5001V5.00012C9 2.79012 7.21 1.00012 5 1.00012C2.79 1.00012 1 2.79012 1 5.00012V17.5001C1 20.5401 3.46 23.0001 6.5 23.0001C9.54 23.0001 12 20.5401 12 17.5001V6.75012C12 6.33591 11.6642 6.00012 11.25 6.00012Z" fill="black"/>
</svg>
