<svg width="76" height="76" viewBox="0 0 76 76" fill="none" xmlns="http://www.w3.org/2000/svg">
<g clip-path="url(#clip0_1297_526)">
<path d="M8.44444 20.4218V59.7143L0 55.0612V7.49658L38 28.4354L46.4444 23.7823V32.0544L42.2222 34.3809V73.6735L38 76L33.7778 73.6735V34.3809L8.44444 20.4218Z" fill="black"/>
<path d="M16.8887 29.2109L25.3331 33.864V69.0205L16.8887 64.3674V29.2109Z" fill="black"/>
<path d="M63.3335 14.4762V22.7483L67.5557 20.4218V59.7143L76.0002 55.0612V7.49658L63.3335 14.4762Z" fill="black"/>
<path d="M25.3331 13.1837V17.3197L16.8887 12.6667V0L37.9998 11.6327L59.1109 0V64.3673L50.6665 69.0204V13.1837L37.9998 20.1633L25.3331 13.1837Z" fill="black"/>
</g>
<defs>
<clipPath id="clip0_1297_526">
<rect width="76" height="76" fill="white"/>
</clipPath>
</defs>
</svg>